<?xml version="1.0" ?><svg enable-background="new 0 0 512 512" id="Layer_1" version="1.1" viewBox="0 0 512 512" xml:space="preserve" xmlns="http://www.w3.org/2000/svg" xmlns:xlink="http://www.w3.org/1999/xlink"><g><g><linearGradient gradientUnits="userSpaceOnUse" id="SVGID_1_" x1="-0.0000027" x2="512" y1="256" y2="256"><stop offset="0" style="stop-color:#33B49D"/><stop offset="1" style="stop-color:#00A185"/></linearGradient><circle cx="256" cy="256" fill="url(#SVGID_1_)" r="256"/><linearGradient gradientUnits="userSpaceOnUse" id="SVGID_2_" x1="42.6666641" x2="469.3333435" y1="256.0005188" y2="256.0005188"><stop offset="0" style="stop-color:#00A185"/><stop offset="1" style="stop-color:#33B49D"/></linearGradient><path d="M256,469.3338623c-117.6315308,0-213.3333435-95.7023926-213.3333435-213.3333435    c0-117.6314545,95.7018051-213.333313,213.3333435-213.333313c117.6362,0,213.3333435,95.7018661,213.3333435,213.333313    C469.3333435,373.6314697,373.6362,469.3338623,256,469.3338623z" fill="url(#SVGID_2_)"/></g><g><polygon opacity="0.3" points="259.835144,176.3594666 228.999939,144 144,144 144,210.4432068 384,210.4432068 384,176.3594666       "/><path d="M144,301.7520142V384h120h120v-82.2479858v-81.3088074H144V301.7520142z M228.5156708,268.1311951    l7.3338623-6.7967834l28.151474,30.3674622l28.1520081-30.3674622l7.3338623,6.7967834l-28.6677246,30.9242859    l28.6677246,30.9242554l-7.3338623,6.7962646l-28.1520081-30.3669434l-28.151474,30.3669434l-7.3338623-6.7962646    l28.6677399-30.9242554L228.5156708,268.1311951z" opacity="0.3"/></g><g><polygon fill="#FFFFFF" points="251.835144,168.3594666 220.999939,136 136,136 136,202.4432068 376,202.4432068 376,168.3594666       "/><path d="M136,293.7520142V376h120h120v-82.2479858v-81.3088074H136V293.7520142z M220.5156708,260.1311951    l7.3338623-6.7967987l28.151474,30.3674774l28.1520081-30.3674774l7.3338623,6.7967987l-28.6677246,30.9242859    l28.6677246,30.9242554l-7.3338623,6.7962646l-28.1520081-30.3669434l-28.151474,30.3669434l-7.3338623-6.7962646    l28.6677399-30.9242554L220.5156708,260.1311951z" fill="#FFFFFF"/></g></g></svg>